{
	"asset":{
		"generator":"Khronos glTF Blender I/O v3.6.27",
		"version":"2.0"
	},
	"scene":0,
	"scenes":[
		{
			"name":"Scene",
			"nodes":[
				0
			]
		}
	],
	"nodes":[
		{
			"mesh":0,
			"name":"glasses._base",
			"rotation":[
				-0.002826080657541752,
				-0.0003802484425250441,
				-0.13337568938732147,
				0.9910615682601929
			],
			"scale":[
				2.559373378753662,
				2.5593743324279785,
				0.16600114107131958
			],
			"translation":[
				0.3777393400669098,
				2.9974606037139893,
				4.855888843536377
			]
		}
	],
	"materials":[
		{
			"name":"glasses_base.001",
			"pbrMetallicRoughness":{
				"baseColorFactor":[
					0.5376929640769958,
					0.11167184263467789,
					0.13673853874206543,
					1
				]
			}
		}
	],
	"meshes":[
		{
			"name":"Cylinder.002",
			"primitives":[
				{
					"attributes":{
						"POSITION":0,
						"NORMAL":1,
						"TEXCOORD_0":2
					},
					"indices":3,
					"material":0
				}
			]
		}
	],
	"accessors":[
		{
			"bufferView":0,
			"componentType":5126,
			"count":4404,
			"max":[
				2.7705721855163574,
				1.4441020488739014,
				6.297893524169922
			],
			"min":[
				-3.1652987003326416,
				-1.465977668762207,
				-42.915279388427734
			],
			"type":"VEC3"
		},
		{
			"bufferView":1,
			"componentType":5126,
			"count":4404,
			"type":"VEC3"
		},
		{
			"bufferView":2,
			"componentType":5126,
			"count":4404,
			"type":"VEC2"
		},
		{
			"bufferView":3,
			"componentType":5123,
			"count":4404,
			"type":"SCALAR"
		}
	],
	"bufferViews":[
		{
			"buffer":0,
			"byteLength":52848,
			"byteOffset":0,
			"target":34962
		},
		{
			"buffer":0,
			"byteLength":52848,
			"byteOffset":52848,
			"target":34962
		},
		{
			"buffer":0,
			"byteLength":35232,
			"byteOffset":105696,
			"target":34962
		},
		{
			"buffer":0,
			"byteLength":8808,
			"byteOffset":140928,
			"target":34963
		}
	],
	"buffers":[
		{
			"byteLength":149736,
			"uri":"data:application/octet-stream;base64,"
		}
	]
}
