{"accessors" : [{"bufferView" : 0, "byteOffset" : 0, "componentType" : 5123, "count" : 4404, "type" : "SCALAR", "max" : [4403], "min" : [0]}, {"bufferView" : 1, "byteOffset" : 0, "componentType" : 5126, "count" : 4404, "type" : "VEC3", "max" : [2.7705721855163574, 1.4441020488739014, 6.297893524169922], "min" : [-3.1652987003326416, -1.465977668762207, -42.915279388427734], "name" : "POSITION"}, {"bufferView" : 1, "byteOffset" : 12, "componentType" : 5126, "count" : 4404, "type" : "VEC3", "max" : [1.0000044107437134, 1.0000044107437134, 1.0000044107437134], "min" : [-1.0000044107437134, -1.0000044107437134, -1.0000044107437134], "name" : "NORMAL"}, {"bufferView" : 1, "byteOffset" : 24, "componentType" : 5126, "count" : 4404, "type" : "VEC2", "max" : [0.9756335616111755, 0.9988726377487183], "min" : [0.0011260434985160828, 0.0561181902885437], "name" : "TEXCOORD_0"}, {"bufferView" : 0, "byteOffset" : 8808, "componentType" : 5123, "count" : 3240, "type" : "SCALAR", "max" : [3239], "min" : [0]}, {"bufferView" : 2, "byteOffset" : 0, "componentType" : 5126, "count" : 3240, "type" : "VEC3", "max" : [0.7992594242095947, 0.7992594242095947, 0.4390248656272888], "min" : [-3.2075304985046387, -1.4585750102996826, -0.4390248656272888], "name" : "POSITION"}, {"bufferView" : 2, "byteOffset" : 12, "componentType" : 5126, "count" : 3240, "type" : "VEC3", "max" : [1.0000042915344238, 1.0000042915344238, 1.0000044107437134], "min" : [-1.0000042915344238, -1.0000042915344238, -1.0000044107437134], "name" : "NORMAL"}, {"bufferView" : 2, "byteOffset" : 24, "componentType" : 5126, "count" : 3240, "type" : "VEC2", "max" : [0.9988690614700317, 0.9988695383071899], "min" : [0.0011240094900131226, 0.14150363206863403], "name" : "TEXCOORD_0"}], "asset" : {"generator" : "Aspose.3D 23.11.1", "version" : "2.0"}, "buffers" : [{"uri" : "data:application/octet-stream;base64,", "byteLength" : 259908}], "bufferViews" : [{"buffer" : 0, "byteOffset" : 0, "byteLength" : 15288, "target" : 34963}, {"buffer" : 0, "byteOffset" : 15292, "byteLength" : 140928, "byteStride" : 32, "target" : 34962}, {"buffer" : 0, "byteOffset" : 156224, "byteLength" : 103680, "byteStride" : 32, "target" : 34962}], "materials" : [{"name" : "glasses_base.001", "pbrMetallicRoughness" : {"baseColorFactor" : [0.5376929640769958, 0.11167184263467789, 0.13673853874206543, 1], "metallicFactor" : 1, "roughnessFactor" : 1}, "emissiveFactor" : [0, 0, 0], "alphaMode" : "OPAQUE", "doubleSided" : false}, {"name" : "glasses_mirror.001", "pbrMetallicRoughness" : {"baseColorFactor" : [0.800000011920929, 0.800000011920929, 0.800000011920929, 0.07200002670288086], "metallicFactor" : 1, "roughnessFactor" : 1}, "emissiveFactor" : [0, 0, 0], "alphaMode" : "BLEND", "doubleSided" : false}], "meshes" : [{"primitives" : [{"attributes" : {"POSITION" : 1, "NORMAL" : 2, "TEXCOORD_0" : 3}, "indices" : 0, "material" : 0, "mode" : 4}], "name" : "Cylinder.002"}, {"primitives" : [{"attributes" : {"POSITION" : 5, "NORMAL" : 6, "TEXCOORD_0" : 7}, "indices" : 4, "material" : 1, "mode" : 4}], "name" : "Cylinder.003"}], "nodes" : [{"matrix" : [1.0606480836868215, -1.490116193793254E-08, -1.225162116728494E-07, 0, 1.4901159349343655E-08, 1.0606480836868282, -2.2409948083131973E-08, 0, 1.2251619821773965E-07, 2.2409943843170002E-08, 1.0606479644775317, 0, 1.177602767944336, 0.23309707641601562, 5.297896385192871, 1], "mesh" : 1, "name" : "glasses_mirror"}, {"children" : [0], "matrix" : [2.8552441152991737, -0.7826723123226185, 0.00446324584462744, 0, 0.7826851012417118, 2.8551979107180627, -0.01628378423456335, 0, 3.1040214358605706E-08, 0.001095121553310889, 0.1920200501718778, 0, 0.3777393400669098, 3.7813775539398193, -0.5852833390235901, 1], "mesh" : 0, "name" : "glasses._base"}], "scene" : 0, "scenes" : [{"nodes" : [1]}]}