{
	"asset":{
		"generator":"Khronos glTF Blender I/O v3.6.27",
		"version":"2.0"
	},
	"scene":0,
	"scenes":[
		{
			"name":"Scene",
			"nodes":[
				0
			]
		}
	],
	"nodes":[
		{
			"mesh":0,
			"name":"Cube_002",
			"rotation":[
				-0.7757704257965088,
				0,
				0,
				0.6310153007507324
			],
			"scale":[
				1.7654523849487305,
				1.765452265739441,
				1.765452265739441
			],
			"translation":[
				0.015152804553508759,
				1.934448480606079,
				5.8398518562316895
			]
		}
	],
	"meshes":[
		{
			"name":"Cube_002",
			"primitives":[
				{
					"attributes":{
						"POSITION":0,
						"NORMAL":1
					},
					"indices":2
				}
			]
		}
	],
	"accessors":[
		{
			"bufferView":0,
			"componentType":5126,
			"count":41794,
			"max":[
				4.390305042266846,
				1.5260900259017944,
				1.7131340503692627
			],
			"min":[
				-4.390305042266846,
				-0.08504100143909454,
				-1.684216022491455
			],
			"type":"VEC3"
		},
		{
			"bufferView":1,
			"componentType":5126,
			"count":41794,
			"type":"VEC3"
		},
		{
			"bufferView":2,
			"componentType":5123,
			"count":44544,
			"type":"SCALAR"
		}
	],
	"bufferViews":[
		{
			"buffer":0,
			"byteLength":501528,
			"byteOffset":0,
			"target":34962
		},
		{
			"buffer":0,
			"byteLength":501528,
			"byteOffset":501528,
			"target":34962
		},
		{
			"buffer":0,
			"byteLength":89088,
			"byteOffset":1003056,
			"target":34963
		}
	],
	"buffers":[
		{
			"byteLength":1092144,
			"uri":"data:application/octet-stream;base64,"
		}
	]
}
