{"accessors" : [{"bufferView" : 0, "byteOffset" : 0, "componentType" : 5123, "count" : 36, "type" : "SCALAR", "max" : [30], "min" : [0]}, {"bufferView" : 1, "byteOffset" : 0, "componentType" : 5126, "count" : 31, "type" : "VEC3", "max" : [1, 1, 1], "min" : [-1, -1, -1], "name" : "POSITION"}, {"bufferView" : 1, "byteOffset" : 12, "componentType" : 5126, "count" : 31, "type" : "VEC3", "max" : [0.57735276222229, 0.57735276222229, 0.57735276222229], "min" : [-0.57735276222229, -0.57735276222229, -0.57735276222229], "name" : "NORMAL"}, {"bufferView" : 0, "byteOffset" : 72, "componentType" : 5123, "count" : 44544, "type" : "SCALAR", "max" : [36922], "min" : [0]}, {"bufferView" : 2, "byteOffset" : 0, "componentType" : 5126, "count" : 36923, "type" : "VEC3", "max" : [4.390305042266846, 1.5260900259017944, 1.7131340503692627], "min" : [-4.390305042266846, -0.08504100143909454, -1.684216022491455], "name" : "POSITION"}, {"bufferView" : 2, "byteOffset" : 12, "componentType" : 5126, "count" : 36923, "type" : "VEC3", "max" : [0.999679446220398, 1.0000044107437134, 1.0000041723251343], "min" : [-0.999679446220398, -1.0000044107437134, -1.0000041723251343], "name" : "NORMAL"}, {"bufferView" : 0, "byteOffset" : 89160, "componentType" : 5123, "count" : 18048, "type" : "SCALAR", "max" : [14921], "min" : [0]}, {"bufferView" : 3, "byteOffset" : 0, "componentType" : 5126, "count" : 14922, "type" : "VEC3", "max" : [4.392378807067871, 8.146860122680664, 0.2789730131626129], "min" : [-4.392378807067871, 3.8171329498291016, -0.10870499908924103], "name" : "POSITION"}, {"bufferView" : 3, "byteOffset" : 12, "componentType" : 5126, "count" : 14922, "type" : "VEC3", "max" : [1.0000044107437134, 0.9898990392684937, 0.9995653629302979], "min" : [-1.0000044107437134, -1.0000044107437134, -0.9999678134918213], "name" : "NORMAL"}, {"bufferView" : 0, "byteOffset" : 125256, "componentType" : 5123, "count" : 7680, "type" : "SCALAR", "max" : [6438], "min" : [0]}, {"bufferView" : 4, "byteOffset" : 0, "componentType" : 5126, "count" : 6439, "type" : "VEC3", "max" : [4.31657600402832, 1.6317490339279175, 0.06767900288105011], "min" : [-4.31657600402832, -1.599871039390564, -0.5117110013961792], "name" : "POSITION"}, {"bufferView" : 4, "byteOffset" : 12, "componentType" : 5126, "count" : 6439, "type" : "VEC3", "max" : [0.3922668397426605, 0.22404220700263977, 0.9999971389770508], "min" : [-0.3922668397426605, -0.1745716631412506, 0.9033154845237732], "name" : "NORMAL"}, {"bufferView" : 0, "byteOffset" : 140616, "componentType" : 5123, "count" : 32400, "type" : "SCALAR", "max" : [27149], "min" : [0]}, {"bufferView" : 5, "byteOffset" : 0, "componentType" : 5126, "count" : 27150, "type" : "VEC3", "max" : [4.404397010803223, 4.003262042999268, 0.7261959910392761], "min" : [-4.404397010803223, 0.946727991104126, -0.5999019742012024], "name" : "POSITION"}, {"bufferView" : 5, "byteOffset" : 12, "componentType" : 5126, "count" : 27150, "type" : "VEC3", "max" : [1.0000044107437134, 0.9951910376548767, 1.0000044107437134], "min" : [-1.0000044107437134, -0.9951910376548767, -1.0000044107437134], "name" : "NORMAL"}], "asset" : {"generator" : "Aspose.3D 23.11.1", "version" : "2.0"}, "buffers" : [{"uri" : "data:application/octet-stream;base64,", "byteLength" : 2670432}], "bufferViews" : [{"buffer" : 0, "byteOffset" : 0, "byteLength" : 205416, "target" : 34963}, {"buffer" : 0, "byteOffset" : 205420, "byteLength" : 864, "byteStride" : 24, "target" : 34962}, {"buffer" : 0, "byteOffset" : 206288, "byteLength" : 1069056, "byteStride" : 24, "target" : 34962}, {"buffer" : 0, "byteOffset" : 1275348, "byteLength" : 433152, "byteStride" : 24, "target" : 34962}, {"buffer" : 0, "byteOffset" : 1708504, "byteLength" : 184320, "byteStride" : 24, "target" : 34962}, {"buffer" : 0, "byteOffset" : 1892828, "byteLength" : 777600, "byteStride" : 24, "target" : 34962}], "cameras" : [{"perspective" : {"aspectRatio" : 1.3333333333333333, "yfov" : 0.5033799390654005, "zfar" : 99.999994, "znear" : 0.1}, "type" : "perspective", "name" : "Camera"}], "meshes" : [{"primitives" : [{"attributes" : {"POSITION" : 1, "NORMAL" : 2}, "indices" : 0, "mode" : 4}], "name" : "Cube_003"}, {"primitives" : [{"attributes" : {"POSITION" : 4, "NORMAL" : 5}, "indices" : 3, "mode" : 4}], "name" : "Cube_002"}, {"primitives" : [{"attributes" : {"POSITION" : 7, "NORMAL" : 8}, "indices" : 6, "mode" : 4}], "name" : "Cube_001"}, {"primitives" : [{"attributes" : {"POSITION" : 10, "NORMAL" : 11}, "indices" : 9, "mode" : 4}], "name" : "Plane"}, {"primitives" : [{"attributes" : {"POSITION" : 13, "NORMAL" : 14}, "indices" : 12, "mode" : 4}], "name" : "Cube"}], "nodes" : [{"matrix" : [54.69174575805664, 0, 0, 0, 0, -8.91029295313501E-06, -54.69174575805591, 0, 0, 0.0530406758189193, -8.641303242897884E-09, 0, 0, -1.7506006956100462, 0, 1], "mesh" : 0, "name" : "Cube_003"}, {"matrix" : [1, 0, 0, 0, 0, 1, 0, 0, 0, 0, 1, 0, 0, 1.400000000000001E-13, 0.014153491705656, 1], "mesh" : 2, "name" : "Cube_001"}, {"matrix" : [1, 0, 0, 0, 0, 7.550015663232781E-08, 0.9999999999999971, 0, 0, -0.9999999999999971, 7.550015663232781E-08, 0, 0, 1.400000000000001E-13, 0.014153491705656, 1], "mesh" : 3, "name" : "Plane"}, {"matrix" : [1, 0, 0, 0, 0, 1, 0, 0, 0, 0, 1, 0, 0, -8.241300000000005E-11, 1.3635200000000004E-10, 1], "mesh" : 4, "name" : "Cube"}, {"children" : [1, 2, 3], "matrix" : [1, 5.235987755982993E-17, 0, 0, 1.0662538742237355E-17, -0.20363948960830972, -0.9790459428811639, 0, -5.126272569470598E-17, 0.9790459428811639, -0.20363948960830972, 0, 0, -0.014153491705656, 0, 1], "mesh" : 1, "name" : "Cube_002"}, {"camera" : 0, "matrix" : [-0.696855175606282, -0.34289777637352004, -0.6299317258154518, 0, -0.2543717658341498, 0.9393727241931256, -0.22994323166469294, 0, 0.6705877041649023, -2.856305456044872E-07, -0.7418302575540876, 0, 17.511966705322266, 6.423986434936523, 11.531285285949707, 1], "name" : "Camera"}], "scene" : 0, "scenes" : [{"nodes" : [0, 4, 5]}]}